<svg width="1200" height="630" viewBox="0 0 1200 630" fill="none" xmlns="http://www.w3.org/2000/svg">
  <defs>
    <linearGradient id="bg" x1="90" y1="48" x2="1116" y2="618" gradientUnits="userSpaceOnUse">
      <stop stop-color="#111C34" />
      <stop offset="1" stop-color="#09111F" />
    </linearGradient>
    <linearGradient id="blob1" x1="127" y1="103" x2="415" y2="317" gradientUnits="userSpaceOnUse">
      <stop stop-color="#6366F1" stop-opacity="0.75" />
      <stop offset="1" stop-color="#6366F1" stop-opacity="0" />
    </linearGradient>
    <linearGradient id="blob2" x1="780" y1="114" x2="1088" y2="382" gradientUnits="userSpaceOnUse">
      <stop stop-color="#9333EA" stop-opacity="0.55" />
      <stop offset="1" stop-color="#9333EA" stop-opacity="0" />
    </linearGradient>
    <linearGradient id="blob3" x1="844" y1="412" x2="1050" y2="544" gradientUnits="userSpaceOnUse">
      <stop stop-color="#FBBF24" stop-opacity="0.4" />
      <stop offset="1" stop-color="#FBBF24" stop-opacity="0" />
    </linearGradient>
  </defs>
  <rect width="1200" height="630" rx="40" fill="url(#bg)" />
  <circle cx="236" cy="157" r="174" fill="url(#blob1)" />
  <circle cx="960" cy="159" r="158" fill="url(#blob2)" />
  <circle cx="966" cy="490" r="120" fill="url(#blob3)" />
  <rect x="84" y="92" width="222" height="222" rx="56" fill="#0F172A" fill-opacity="0.78" stroke="#A5B4FC" stroke-opacity="0.28" />
  <path d="M221.16 124.793C243.479 137.823 257.692 162.607 256.325 189.157C254.476 224.93 226.521 253.995 191.275 257.434C162.388 260.252 138.461 245.005 127.449 220.609C113.025 188.652 121.763 149.35 149.628 128.728C171.543 112.514 198.652 111.629 221.16 124.793Z" fill="url(#blob3)" />
  <path d="M195.303 138.5C213.702 159.323 212.21 219.306 179.572 244.5" stroke="#F8FAFC" stroke-width="8.5" stroke-linecap="round" />
  <path d="M102 173C115.342 162.384 127.495 157.075 138.458 157.075" stroke="#FBBF24" stroke-width="7" stroke-linecap="round" stroke-opacity="0.95" />
  <path d="M109 205C122.606 194.174 137.166 188.761 152.681 188.761" stroke="#A5B4FC" stroke-width="5.5" stroke-linecap="round" stroke-opacity="0.9" />
  <circle cx="255" cy="145" r="24" fill="#FBBF24" />
  <path d="M245 145H265" stroke="#0F172A" stroke-width="6.5" stroke-linecap="round" />
  <path d="M255 135V155" stroke="#0F172A" stroke-width="6.5" stroke-linecap="round" />
  <text x="360" y="190" fill="#FBBF24" font-family="Space Grotesk, Arial, sans-serif" font-size="28" font-weight="700" letter-spacing="0.22em">CLICKCOLLECT.COFFEE DOCS</text>
  <text x="360" y="292" fill="#FFFFFF" font-family="Space Grotesk, Arial, sans-serif" font-size="74" font-weight="700">Own the repeat order.</text>
  <text x="360" y="358" fill="#D8E1F5" font-family="DM Sans, Arial, sans-serif" font-size="32">Operational guides for branded order-ahead coffee storefronts.</text>
  <text x="360" y="422" fill="#D8E1F5" font-family="DM Sans, Arial, sans-serif" font-size="30">Direct ownership. Reliable pickup. Independent-first execution.</text>
</svg>